<svg version="1.1" id="Layer_1" xmlns="http://www.w3.org/2000/svg" xmlns:xlink="http://www.w3.org/1999/xlink" x="0px" y="0px"
	 width="100%" viewBox="0 0 200 200" enable-background="new 0 0 200 200" xml:space="preserve">
<path fill="#013566" opacity="1.000000" stroke="none" 
	d="
M116.000000,201.000000 
	C77.357201,201.000000 39.214397,201.000000 1.035799,201.000000 
	C1.035799,134.398911 1.035799,67.797783 1.035799,1.098330 
	C67.559296,1.098330 134.118790,1.098330 200.839142,1.098330 
	C200.839142,67.666351 200.839142,134.333145 200.839142,201.000000 
	C172.798065,201.000000 144.649033,201.000000 116.000000,201.000000 
M160.677719,141.976593 
	C161.596375,141.485199 162.515030,140.993790 163.433685,140.502380 
	C162.955795,140.001587 162.477890,139.500793 162.206131,138.264435 
	C162.804062,135.922577 163.904236,133.584274 163.920853,131.238312 
	C164.059921,111.601860 164.030151,91.963867 163.956039,72.326706 
	C163.948090,70.216629 163.333298,68.108849 163.303802,65.314835 
	C163.415390,63.895260 163.998581,61.412304 163.565720,61.220329 
	C159.156937,59.264999 161.336685,54.969048 160.663315,51.800488 
	C160.775543,50.200275 160.887772,48.600060 161.129242,46.287983 
	C161.699738,44.845570 162.270248,43.403156 162.944580,41.698257 
	C158.436951,40.572308 154.828674,40.227882 152.246979,45.005157 
	C151.495651,45.010845 150.744324,45.016533 149.163696,45.017223 
	C145.808502,45.673473 142.455902,46.883358 139.097687,46.899208 
	C109.733154,47.037773 80.367615,46.962952 51.045681,46.160553 
	C51.592148,42.120956 54.760880,43.034676 57.249039,43.030209 
	C84.028000,42.982101 110.807083,43.005726 137.586105,42.987579 
	C139.416962,42.986336 141.247681,42.807686 143.078461,42.711544 
	C142.374283,41.391281 141.653717,41.043056 140.932831,41.042366 
	C111.326302,41.013985 81.717667,40.835266 52.115078,41.176830 
	C46.538021,41.241184 40.460182,42.258427 36.233227,48.006020 
	C32.061371,48.183300 30.750107,50.309391 31.906933,54.229603 
	C32.367767,55.791267 32.641235,57.408218 32.319984,59.122780 
	C29.048796,60.689716 28.821314,62.930603 30.491634,65.948517 
	C31.098852,67.045631 31.420523,68.883614 30.912481,69.906990 
	C29.324020,73.106705 30.376118,75.205734 32.713928,77.604523 
	C31.397972,79.799515 30.526817,81.974594 32.892410,84.691551 
	C33.261608,86.461037 33.630806,88.230515 33.915222,90.630890 
	C33.610100,91.420593 33.304974,92.210297 32.315357,93.128311 
	C31.674637,94.045204 31.033918,94.962105 30.393200,95.878998 
	C31.595488,95.919334 32.797775,95.959663 34.700901,96.018784 
	C40.475639,98.558517 37.856113,90.242973 41.011806,90.368385 
	C42.913589,92.901718 44.451885,94.950859 45.996021,97.937302 
	C45.993973,113.291534 45.991924,128.645767 45.242653,144.000000 
	C44.495102,144.000000 43.747551,144.000000 43.000000,143.062683 
	C42.999466,129.831024 42.981823,116.599335 43.011948,103.367752 
	C43.018452,100.511528 42.872879,97.897148 38.369114,98.084778 
	C37.579407,98.389854 36.789703,98.694923 35.196754,99.073090 
	C34.468967,100.166786 33.121738,101.252914 33.108269,102.355339 
	C32.957138,114.723061 32.929531,127.094673 33.140697,139.460602 
	C33.161118,140.656326 35.003422,141.820938 36.508053,143.276581 
	C37.005371,143.851059 37.502686,144.425522 37.250000,145.000000 
	C36.500000,145.000000 35.750000,145.000000 34.306866,144.896057 
	C32.965317,145.235687 31.623764,145.575317 30.282211,145.914948 
	C31.188141,147.276627 32.094070,148.638321 32.879948,150.731674 
	C33.000031,153.522095 28.160357,156.984375 34.001133,159.776489 
	C34.428291,161.077209 34.855453,162.377914 35.282612,163.678635 
	C36.188408,163.119080 37.094204,162.559540 38.660851,161.982468 
	C39.440617,161.654968 40.220383,161.327484 41.660980,160.982468 
	C42.440704,160.654984 43.220432,160.327499 44.493031,160.408813 
	C45.840107,161.799866 47.146980,162.846024 48.678993,160.198257 
	C50.418453,161.010757 52.645103,162.890442 53.777611,162.373444 
	C55.291714,161.682220 55.957260,159.132233 57.367477,156.733719 
	C59.607491,159.254471 61.482479,161.364456 63.876499,164.058517 
	C64.571907,163.056915 65.285957,162.028458 66.937317,161.000000 
	C90.140495,161.000000 113.346069,161.176697 136.545013,160.863556 
	C141.708618,160.793839 146.848953,159.000015 152.471573,158.578644 
	C152.935013,160.314606 153.398438,162.050568 153.888245,163.885284 
	C156.192291,161.845062 158.035980,160.394257 159.641617,158.715714 
	C160.471985,157.847610 161.509827,156.484634 161.367950,155.502029 
	C160.808136,151.624725 159.818115,147.809525 159.226822,143.473618 
	C159.479782,142.982361 159.732742,142.491104 160.677719,141.976593 
M39.365475,37.185429 
	C41.028656,37.041759 42.944981,37.355686 44.279301,36.617542 
	C45.463169,35.962639 46.541550,34.171715 46.622444,32.819782 
	C46.671658,31.997362 44.758343,30.360247 43.696690,30.334753 
	C42.167873,30.298042 40.131958,31.002985 39.215218,32.127415 
	C38.444710,33.072487 38.963924,35.069054 39.365475,37.185429 
M150.066528,39.777683 
	C151.257477,39.219433 152.448410,38.661186 153.639359,38.102936 
	C153.532837,37.642189 153.426331,37.181438 153.319824,36.720692 
	C150.422089,36.720692 147.524353,36.720692 144.626602,36.720692 
	C144.517822,37.234241 144.409042,37.747791 144.300247,38.261341 
	C145.971603,38.810307 147.642944,39.359276 150.066528,39.777683 
M159.378159,34.959988 
	C160.125916,34.300331 160.873672,33.640675 161.621429,32.981018 
	C160.746506,32.367695 159.870972,31.274864 158.996826,31.275984 
	C158.123611,31.277102 157.251785,32.373173 156.379349,32.989231 
	C157.130219,33.646267 157.881073,34.303307 159.378159,34.959988 
z"/>
<path fill="#023565" opacity="1.000000" stroke="none" 
	d="
M160.000000,52.000153 
	C161.336685,54.969048 159.156937,59.264999 163.565720,61.220329 
	C163.998581,61.412304 163.415390,63.895260 162.753479,65.678711 
	C158.503830,66.439865 159.017990,69.271027 159.014618,71.702141 
	C158.987610,91.138252 158.996567,110.574409 158.690918,130.083374 
	C156.784973,130.763306 155.182587,131.370422 153.465210,131.657639 
	C153.426331,130.897690 153.502472,130.457642 153.823425,129.911011 
	C153.904922,128.863541 153.741577,127.922653 153.459564,126.528282 
	C153.326935,119.947243 153.268311,113.819389 153.307999,107.692177 
	C153.400116,93.466423 153.539703,79.240967 153.937485,64.889343 
	C154.003830,61.171680 153.792755,57.580063 153.461609,53.572876 
	C153.242310,51.433533 153.143051,49.709759 153.234756,47.791870 
	C153.283127,46.734097 153.140564,45.870434 152.997986,45.006771 
	C154.828674,40.227882 158.436951,40.572308 162.944580,41.698257 
	C162.270248,43.403156 161.699738,44.845570 160.692596,46.648125 
	C159.284286,47.457523 158.312607,47.906776 157.340942,48.356033 
	C158.227295,49.570740 159.113647,50.785446 160.000000,52.000153 
z"/>
<path fill="#023565" opacity="1.000000" stroke="none" 
	d="
M34.000000,90.000000 
	C33.630806,88.230515 33.261608,86.461037 33.287041,84.254608 
	C36.499771,81.240616 37.580338,78.837303 33.000000,77.000000 
	C30.376118,75.205734 29.324020,73.106705 30.912481,69.906990 
	C31.420523,68.883614 31.098852,67.045631 30.491634,65.948517 
	C28.821314,62.930603 29.048796,60.689716 32.912415,59.296150 
	C34.294800,61.153530 35.084751,62.837543 35.954010,64.690628 
	C39.749722,62.756340 41.509529,60.036755 40.838406,55.715549 
	C39.451511,54.620632 38.225758,53.810314 37.000000,52.583336 
	C36.999947,50.777779 36.999897,49.388889 36.999847,48.000000 
	C40.460182,42.258427 46.538021,41.241184 52.115078,41.176830 
	C81.717667,40.835266 111.326302,41.013985 140.932831,41.042366 
	C141.653717,41.043056 142.374283,41.391281 143.078461,42.711544 
	C141.247681,42.807686 139.416962,42.986336 137.586105,42.987579 
	C110.807083,43.005726 84.028000,42.982101 57.249039,43.030209 
	C54.760880,43.034676 51.592148,42.120956 50.690697,46.567478 
	C49.891132,46.978291 49.446552,46.982178 48.899078,46.656868 
	C47.360218,46.400616 45.924252,46.473560 44.488281,46.546505 
	C45.314247,47.360298 46.140209,48.174095 47.054874,49.319843 
	C47.083252,50.101910 47.022930,50.552017 46.703125,51.233627 
	C42.382736,54.127483 45.381012,57.871090 44.667152,61.056408 
	C43.960312,61.034866 43.555367,61.049274 42.882805,61.318169 
	C42.411564,63.045437 42.207943,64.518227 41.831985,66.291718 
	C38.278259,69.508163 37.326931,72.774940 39.088627,77.177643 
	C40.698841,81.201752 37.542694,88.242256 34.000000,90.000000 
z"/>
<path fill="#013566" opacity="1.000000" stroke="none" 
	d="
M158.994507,130.010559 
	C158.996567,110.574409 158.987610,91.138252 159.014618,71.702141 
	C159.017990,69.271027 158.503830,66.439865 162.601578,66.021301 
	C163.333298,68.108849 163.948090,70.216629 163.956039,72.326706 
	C164.030151,91.963867 164.059921,111.601860 163.920853,131.238312 
	C163.904236,133.584274 162.804062,135.922577 161.743759,138.611359 
	C160.518478,137.968216 159.755585,136.978149 158.993317,135.561462 
	C158.994141,133.426758 158.994324,131.718658 158.994507,130.010559 
z"/>
<path fill="#023566" opacity="1.000000" stroke="none" 
	d="
M152.000000,158.000000 
	C146.848953,159.000015 141.708618,160.793839 136.545013,160.863556 
	C113.346069,161.176697 90.140495,161.000000 66.476906,160.587921 
	C66.053276,156.077988 69.154015,157.035400 71.452927,157.030090 
	C93.116447,156.979935 114.780434,157.048050 136.443237,156.914291 
	C138.299606,156.902817 140.148514,155.684692 142.444885,155.020203 
	C145.258865,155.028091 147.628815,155.042892 150.063919,155.354156 
	C150.752701,156.433731 151.376343,157.216873 152.000000,158.000000 
z"/>
<path fill="#023565" opacity="1.000000" stroke="none" 
	d="
M142.000870,155.027100 
	C140.148514,155.684692 138.299606,156.902817 136.443237,156.914291 
	C114.780434,157.048050 93.116447,156.979935 71.452927,157.030090 
	C69.154015,157.035400 66.053276,156.077988 66.008255,160.587921 
	C65.285957,162.028458 64.571907,163.056915 63.876499,164.058517 
	C61.482479,161.364456 59.607491,159.254471 57.367477,156.733719 
	C55.957260,159.132233 55.291714,161.682220 53.777611,162.373444 
	C52.645103,162.890442 50.418453,161.010757 48.339531,159.724197 
	C48.000023,158.500290 47.999977,157.750458 48.212563,156.806244 
	C48.620987,156.079224 48.816772,155.546570 49.479939,155.010468 
	C80.631836,155.013687 111.316353,155.020401 142.000870,155.027100 
z"/>
<path fill="#013566" opacity="1.000000" stroke="none" 
	d="
M33.957611,90.315445 
	C37.542694,88.242256 40.698841,81.201752 39.088627,77.177643 
	C37.326931,72.774940 38.278259,69.508163 42.072174,66.595581 
	C43.704651,69.713463 44.924610,72.828178 46.378952,76.173767 
	C46.743889,77.268753 46.874443,78.132881 46.771912,79.283615 
	C46.760071,82.586586 46.981308,85.602951 47.214783,88.922134 
	C47.124542,89.819923 47.022064,90.414902 46.692612,91.313675 
	C46.307156,93.411652 46.148670,95.205826 45.990181,97.000000 
	C44.451885,94.950859 42.913589,92.901718 41.011806,90.368385 
	C37.856113,90.242973 40.475639,98.558517 34.308071,95.693947 
	C33.610107,94.579407 33.304977,93.789703 32.999847,93.000000 
	C33.304974,92.210297 33.610100,91.420593 33.957611,90.315445 
z"/>
<path fill="#023565" opacity="1.000000" stroke="none" 
	d="
M36.000000,99.000000 
	C36.789703,98.694923 37.579407,98.389854 38.684555,98.511047 
	C39.000587,112.418510 39.046284,125.899963 38.966137,139.380676 
	C38.948772,142.301514 39.443027,144.385559 42.999992,144.455933 
	C43.333374,149.941254 43.666763,154.970627 44.000153,160.000000 
	C43.220432,160.327499 42.440704,160.654984 41.330536,160.548981 
	C40.000057,155.076981 39.000027,150.038498 38.000000,145.000000 
	C37.502686,144.425522 37.005371,143.851059 36.254028,142.669632 
	C36.000000,127.708458 36.000000,113.354225 36.000000,99.000000 
z"/>
<path fill="#013566" opacity="1.000000" stroke="none" 
	d="
M43.000000,143.531342 
	C39.443027,144.385559 38.948772,142.301514 38.966137,139.380676 
	C39.046284,125.899963 39.000587,112.418510 39.000000,98.468658 
	C42.872879,97.897148 43.018452,100.511528 43.011948,103.367752 
	C42.981823,116.599335 42.999466,129.831024 43.000000,143.531342 
z"/>
<path fill="#013566" opacity="1.000000" stroke="none" 
	d="
M35.598377,99.036545 
	C36.000000,113.354225 36.000000,127.708458 36.000000,142.531342 
	C35.003422,141.820938 33.161118,140.656326 33.140697,139.460602 
	C32.929531,127.094673 32.957138,114.723061 33.108269,102.355339 
	C33.121738,101.252914 34.468967,100.166786 35.598377,99.036545 
z"/>
<path fill="#023565" opacity="1.000000" stroke="none" 
	d="
M152.235779,158.289322 
	C151.376343,157.216873 150.752701,156.433731 150.342438,155.307724 
	C151.036057,154.693329 151.516296,154.421814 152.328964,154.006210 
	C152.971588,151.461945 153.281784,149.061783 153.799698,146.311661 
	C155.667511,145.298233 157.327606,144.634766 158.987701,143.971283 
	C159.818115,147.809525 160.808136,151.624725 161.367950,155.502029 
	C161.509827,156.484634 160.471985,157.847610 159.641617,158.715714 
	C158.035980,160.394257 156.192291,161.845062 153.888245,163.885284 
	C153.398438,162.050568 152.935013,160.314606 152.235779,158.289322 
z"/>
<path fill="#123A5F" opacity="1.000000" stroke="none" 
	d="
M49.001968,46.986065 
	C49.446552,46.982178 49.891132,46.978291 50.669044,46.962921 
	C80.367615,46.962952 109.733154,47.037773 139.097687,46.899208 
	C142.455902,46.883358 145.808502,45.673473 149.580261,45.369659 
	C149.999741,46.423264 150.002670,47.124424 149.541779,47.901188 
	C115.716896,47.928692 82.355835,47.880596 48.996273,47.620888 
	C48.997776,47.409275 49.001968,46.986065 49.001968,46.986065 
z"/>
<path fill="#013566" opacity="1.000000" stroke="none" 
	d="
M37.625000,145.000000 
	C39.000027,150.038498 40.000057,155.076981 41.000118,160.557739 
	C40.220383,161.327484 39.440617,161.654968 38.329994,161.595932 
	C37.616646,159.311523 37.234154,157.413666 36.594482,154.239700 
	C35.202789,156.793152 34.601395,157.896576 34.000000,159.000000 
	C28.160357,156.984375 33.000031,153.522095 33.238739,150.173706 
	C34.065022,148.077164 34.532513,146.538574 35.000000,145.000000 
	C35.750000,145.000000 36.500000,145.000000 37.625000,145.000000 
z"/>
<path fill="#013566" opacity="1.000000" stroke="none" 
	d="
M36.616539,48.003010 
	C36.999897,49.388889 36.999947,50.777779 37.064148,52.928947 
	C38.418713,54.460869 39.709129,55.230511 40.999542,56.000153 
	C41.509529,60.036755 39.749722,62.756340 35.954010,64.690628 
	C35.084751,62.837543 34.294800,61.153530 33.252426,59.234756 
	C32.641235,57.408218 32.367767,55.791267 31.906933,54.229603 
	C30.750107,50.309391 32.061371,48.183300 36.616539,48.003010 
z"/>
<path fill="#0B3459" opacity="1.000000" stroke="none" 
	d="
M45.993103,97.468651 
	C46.148670,95.205826 46.307156,93.411652 46.786873,91.772934 
	C47.115833,110.943375 47.101120,129.958450 47.169456,148.973221 
	C47.175617,150.688507 47.717587,152.401871 48.148010,154.296631 
	C48.494656,154.700867 48.737076,154.879791 49.012558,155.013931 
	C48.816772,155.546570 48.620987,156.079224 47.938553,156.539352 
	C46.964558,152.311234 46.477215,148.155609 45.989876,144.000000 
	C45.991924,128.645767 45.993973,113.291534 45.993103,97.468651 
z"/>
<path fill="#023565" opacity="1.000000" stroke="none" 
	d="
M39.138824,36.892769 
	C38.963924,35.069054 38.444710,33.072487 39.215218,32.127415 
	C40.131958,31.002985 42.167873,30.298042 43.696690,30.334753 
	C44.758343,30.360247 46.671658,31.997362 46.622444,32.819782 
	C46.541550,34.171715 45.463169,35.962639 44.279301,36.617542 
	C42.944981,37.355686 41.028656,37.041759 39.138824,36.892769 
z"/>
<path fill="#013566" opacity="1.000000" stroke="none" 
	d="
M45.616264,144.000000 
	C46.477215,148.155609 46.964558,152.311234 47.725914,156.733734 
	C47.999977,157.750458 48.000023,158.500290 48.000111,159.625061 
	C47.146980,162.846024 45.840107,161.799866 44.246590,160.204407 
	C43.666763,154.970627 43.333374,149.941254 42.999992,144.455933 
	C43.747551,144.000000 44.495102,144.000000 45.616264,144.000000 
z"/>
<path fill="#123A5F" opacity="1.000000" stroke="none" 
	d="
M159.107269,143.722443 
	C157.327606,144.634766 155.667511,145.298233 153.489227,146.060608 
	C151.661331,146.128342 150.351654,146.097214 148.904877,145.696350 
	C147.128448,144.881561 145.499573,144.392303 143.847549,144.000778 
	C140.578827,143.226089 137.297287,142.505371 134.463257,141.716064 
	C137.139343,142.069016 139.417160,142.959595 141.597916,142.764618 
	C146.057358,142.365906 150.953064,145.078949 155.089386,140.884171 
	C155.482864,140.441696 155.741364,140.218338 156.343246,140.007111 
	C157.786331,140.679428 158.886002,141.339630 159.985687,141.999832 
	C159.732742,142.491104 159.479782,142.982361 159.107269,143.722443 
z"/>
<path fill="#023565" opacity="1.000000" stroke="none" 
	d="
M149.690399,39.842964 
	C147.642944,39.359276 145.971603,38.810307 144.300247,38.261341 
	C144.409042,37.747791 144.517822,37.234241 144.626602,36.720692 
	C147.524353,36.720692 150.422089,36.720692 153.319824,36.720692 
	C153.426331,37.181438 153.532837,37.642189 153.639359,38.102936 
	C152.448410,38.661186 151.257477,39.219433 149.690399,39.842964 
z"/>
<path fill="#023565" opacity="1.000000" stroke="none" 
	d="
M34.000565,159.388245 
	C34.601395,157.896576 35.202789,156.793152 36.594482,154.239700 
	C37.234154,157.413666 37.616646,159.311523 37.999565,161.604706 
	C37.094204,162.559540 36.188408,163.119080 35.282616,163.678635 
	C34.855453,162.377914 34.428291,161.077209 34.000565,159.388245 
z"/>
<path fill="#013566" opacity="1.000000" stroke="none" 
	d="
M32.856964,77.302261 
	C37.580338,78.837303 36.499771,81.240616 33.340912,83.908829 
	C30.526817,81.974594 31.397972,79.799515 32.856964,77.302261 
z"/>
<path fill="#023565" opacity="1.000000" stroke="none" 
	d="
M34.653435,144.948029 
	C34.532513,146.538574 34.065022,148.077164 33.298767,149.807861 
	C32.094070,148.638321 31.188141,147.276627 30.282211,145.914948 
	C31.623764,145.575317 32.965317,145.235687 34.653435,144.948029 
z"/>
<path fill="#023565" opacity="1.000000" stroke="none" 
	d="
M160.331696,141.988220 
	C158.886002,141.339630 157.786331,140.679428 156.385986,139.691650 
	C156.387817,138.572021 156.690308,137.779938 157.189362,136.776215 
	C157.921509,136.372406 158.457092,136.180237 158.992676,135.988083 
	C159.755585,136.978149 160.518478,137.968216 161.640686,138.979141 
	C162.477890,139.500793 162.955795,140.001587 163.433685,140.502380 
	C162.515030,140.993790 161.596375,141.485199 160.331696,141.988220 
z"/>
<path fill="#023566" opacity="1.000000" stroke="none" 
	d="
M160.331665,51.900322 
	C159.113647,50.785446 158.227295,49.570740 157.340942,48.356033 
	C158.312607,47.906776 159.284286,47.457523 160.627975,47.004059 
	C160.887772,48.600060 160.775543,50.200275 160.331665,51.900322 
z"/>
<path fill="#023565" opacity="1.000000" stroke="none" 
	d="
M159.005035,34.960167 
	C157.881073,34.303307 157.130219,33.646267 156.379349,32.989235 
	C157.251785,32.373173 158.123611,31.277102 158.996826,31.275984 
	C159.870972,31.274864 160.746506,32.367695 161.621429,32.981018 
	C160.873672,33.640675 160.125916,34.300331 159.005035,34.960167 
z"/>
<path fill="#023565" opacity="1.000000" stroke="none" 
	d="
M32.657600,93.064156 
	C33.304977,93.789703 33.610107,94.579407 33.957649,95.684555 
	C32.797775,95.959663 31.595488,95.919334 30.393200,95.878998 
	C31.033918,94.962105 31.674637,94.045204 32.657600,93.064156 
z"/>
<path fill="#0D3963" opacity="1.000000" stroke="none" 
	d="
M150.005600,47.825584 
	C150.002670,47.124424 149.999741,46.423264 149.994904,45.372162 
	C150.744324,45.016533 151.495651,45.010845 152.622498,45.005966 
	C153.140564,45.870434 153.283127,46.734097 152.853058,47.795666 
	C151.522156,47.937576 150.763870,47.881580 150.005600,47.825584 
z"/>
<path fill="#F4FCFD" opacity="1.000000" stroke="none" 
	d="
M149.541779,47.901184 
	C150.763870,47.881580 151.522156,47.937576 152.662109,47.989777 
	C153.143051,49.709759 153.242310,51.433533 153.334045,54.017006 
	C153.437729,58.256268 153.548889,61.635830 153.660065,65.015396 
	C153.539703,79.240967 153.400116,93.466423 153.307999,107.692177 
	C153.268311,113.819389 153.326935,119.947243 153.334259,126.897537 
	C153.411285,128.486053 153.494934,129.251816 153.578583,130.017593 
	C153.502472,130.457642 153.426331,130.897690 153.339203,132.057632 
	C152.885727,134.248566 152.443268,135.719620 151.702271,137.099548 
	C150.905579,136.731979 150.407425,136.455505 149.923950,135.774155 
	C149.701004,133.575928 149.463364,131.782578 149.164490,129.524857 
	C149.144302,105.709717 149.185318,82.358963 149.418732,58.712479 
	C149.467178,56.612358 149.323212,54.807976 148.959137,52.690449 
	C147.481064,52.356655 146.223083,52.336006 144.505676,52.230278 
	C117.759842,52.202587 91.473465,52.259968 64.805664,52.223656 
	C61.546669,52.190598 58.669102,52.251236 55.526417,52.227142 
	C54.898434,52.196438 54.535568,52.250469 53.793270,52.216858 
	C49.463676,54.313381 52.222500,57.763931 51.691624,60.949001 
	C51.339321,62.109203 51.107231,62.936615 50.881046,63.742962 
	C45.917397,60.401672 47.643871,55.363743 46.962608,51.002129 
	C47.022930,50.552017 47.083252,50.101910 47.216209,49.059628 
	C47.857483,48.255802 48.426128,48.044151 48.994770,47.832497 
	C82.355835,47.880596 115.716896,47.928692 149.541779,47.901184 
z"/>
<path fill="#0D3963" opacity="1.000000" stroke="none" 
	d="
M152.000824,137.190674 
	C152.443268,135.719620 152.885727,134.248566 153.454193,132.377533 
	C155.182587,131.370422 156.784973,130.763306 158.690918,130.083374 
	C158.994324,131.718658 158.994141,133.426758 158.993317,135.561462 
	C158.457092,136.180237 157.921509,136.372406 156.842316,136.794769 
	C154.878723,137.689651 153.458755,138.354309 152.026474,138.714142 
	C152.009720,138.003098 152.005264,137.596893 152.000824,137.190674 
z"/>
<path fill="#0D3963" opacity="1.000000" stroke="none" 
	d="
M153.937485,64.889343 
	C153.548889,61.635830 153.437729,58.256268 153.454117,54.432571 
	C153.792755,57.580063 154.003830,61.171680 153.937485,64.889343 
z"/>
<path fill="#0D3963" opacity="1.000000" stroke="none" 
	d="
M153.823425,129.911011 
	C153.494934,129.251816 153.411285,128.486053 153.452942,127.351013 
	C153.741577,127.922653 153.904922,128.863541 153.823425,129.911011 
z"/>
<path fill="#F8FBFC" opacity="1.000000" stroke="none" 
	d="
M47.004997,78.997009 
	C46.874443,78.132881 46.743889,77.268753 46.381409,75.763290 
	C45.149796,70.435860 44.150108,65.749771 43.150421,61.063683 
	C43.555367,61.049274 43.960312,61.034866 44.786285,61.371826 
	C48.721283,66.207451 52.235249,70.691711 55.769867,75.150452 
	C55.790516,75.124931 55.735996,75.155357 55.799183,75.424080 
	C56.129730,75.930443 56.397087,76.168083 56.735733,76.292847 
	C56.807022,76.179977 56.621624,76.372116 56.746330,76.674377 
	C58.198166,78.428322 59.525295,79.879990 60.906075,81.546959 
	C60.959732,81.762253 61.343166,81.985641 61.445820,82.215332 
	C61.919014,82.766701 62.289551,83.088371 62.754150,83.293098 
	C62.848213,83.176147 62.624100,83.375832 62.727379,83.647575 
	C63.636456,84.739403 64.442261,85.559486 65.260979,86.510208 
	C65.273895,86.640839 65.527405,86.709145 65.701508,86.964417 
	C67.227486,88.514389 68.579369,89.809097 69.944199,91.067581 
	C69.957153,91.031372 69.882965,91.051682 69.964523,91.310867 
	C70.350250,91.748756 70.654419,91.927460 70.968658,92.070496 
	C70.978737,92.034828 70.908714,92.059174 71.023987,92.363358 
	C72.582047,93.933151 74.024834,95.198753 75.486816,96.487755 
	C75.506020,96.511154 75.558266,96.541740 75.750153,96.786011 
	C77.388771,98.184502 78.835510,99.338730 80.311279,100.590157 
	C80.340309,100.687355 80.540215,100.721970 80.730583,100.961258 
	C82.284546,102.123413 83.648140,103.046288 85.211571,104.245056 
	C93.815849,110.488022 102.395775,114.936478 113.462746,112.306892 
	C119.969475,110.760841 125.874916,115.861862 127.530174,122.896942 
	C122.749962,121.632019 118.114372,120.938606 114.638519,126.047676 
	C112.205101,127.701569 110.105942,129.299011 107.626358,131.067612 
	C97.496262,130.463547 87.746605,129.688324 77.707596,128.701965 
	C76.719002,128.422623 76.019753,128.354385 74.964828,128.255402 
	C72.070961,127.436981 69.532776,126.649284 66.761650,125.676605 
	C66.146156,125.409660 65.763588,125.327705 65.136734,125.234619 
	C64.568840,125.154190 64.271255,125.024971 63.792564,124.654976 
	C63.237007,124.379997 62.888569,124.285881 62.378029,124.203842 
	C62.215927,124.215927 61.992725,123.979553 61.779861,123.725937 
	C61.053650,122.089668 60.540306,120.707024 60.287186,119.286049 
	C60.702137,119.165215 60.856869,119.082710 61.391800,119.017754 
	C63.231087,119.374481 64.690170,119.713654 66.112900,120.404907 
	C67.717743,121.545624 69.358948,122.334259 71.153351,123.292030 
	C71.855812,123.461449 72.405075,123.461723 73.327782,123.381454 
	C74.450912,123.171623 75.200607,123.042351 76.019470,123.209579 
	C76.682495,123.931717 77.276352,124.357353 77.870216,124.782997 
	C78.026657,124.517883 78.183105,124.252777 78.339546,123.987663 
	C77.530487,123.642250 76.721428,123.296829 75.833885,122.584808 
	C75.425377,121.489685 74.606415,120.420952 74.840309,120.084831 
	C77.423409,116.372635 74.500519,115.265770 71.904266,113.603317 
	C60.359043,104.135536 51.443432,93.179916 47.004997,78.997009 
z"/>
<path fill="#0D3963" opacity="1.000000" stroke="none" 
	d="
M55.749214,75.175964 
	C52.235249,70.691711 48.721283,66.207451 45.088181,61.407776 
	C45.381012,57.871090 42.382736,54.127483 46.703125,51.233627 
	C47.643871,55.363743 45.917397,60.401672 50.881046,63.742962 
	C51.107231,62.936615 51.339321,62.109203 51.764969,61.280964 
	C52.301666,61.851685 52.644817,62.423229 53.192612,63.258690 
	C54.100002,66.297272 54.854065,69.060440 55.479515,71.852425 
	C55.720131,72.926506 55.667976,74.066177 55.749214,75.175964 
z"/>
<path fill="#0D3963" opacity="1.000000" stroke="none" 
	d="
M42.882805,61.318169 
	C44.150108,65.749771 45.149796,70.435860 46.147026,75.532425 
	C44.924610,72.828178 43.704651,69.713463 42.244507,66.294876 
	C42.207943,64.518227 42.411564,63.045437 42.882805,61.318169 
z"/>
<path fill="#0D3963" opacity="1.000000" stroke="none" 
	d="
M48.996273,47.620888 
	C48.426128,48.044151 47.857483,48.255802 47.127510,48.727673 
	C46.140209,48.174095 45.314247,47.360298 44.488281,46.546505 
	C45.924252,46.473560 47.360218,46.400616 48.899078,46.656868 
	C49.001968,46.986065 48.997776,47.409275 48.996273,47.620888 
z"/>
<path fill="#013566" opacity="1.000000" stroke="none" 
	d="
M40.838406,55.715549 
	C39.709129,55.230511 38.418713,54.460869 37.064148,53.345612 
	C38.225758,53.810314 39.451511,54.620632 40.838406,55.715549 
z"/>
<path fill="#0F3252" opacity="1.000000" stroke="none" 
	d="
M49.479939,155.010468 
	C48.737076,154.879791 48.494656,154.700867 48.612083,154.237015 
	C83.291435,154.048019 117.643990,154.099167 151.996552,154.150299 
	C151.516296,154.421814 151.036057,154.693329 150.277298,155.011261 
	C147.628815,155.042892 145.258865,155.028091 142.444885,155.020203 
	C111.316353,155.020401 80.631836,155.013687 49.479939,155.010468 
z"/>
<path fill="#E4EFF6" opacity="1.000000" stroke="none" 
	d="
M152.328964,154.006210 
	C117.643990,154.099167 83.291435,154.048019 48.474804,154.056488 
	C47.717587,152.401871 47.175617,150.688507 47.169456,148.973221 
	C47.101120,129.958450 47.115833,110.943375 47.013844,91.469131 
	C47.022064,90.414902 47.124542,89.819923 47.436813,89.131378 
	C52.616806,94.175705 51.351307,100.749809 51.651718,107.214638 
	C51.618515,108.682549 51.702568,109.872070 51.696644,111.503189 
	C51.666561,122.950699 51.726456,133.956619 51.654221,145.267654 
	C51.791298,147.274872 50.230625,150.171616 54.449116,149.589203 
	C55.501797,149.608139 56.206211,149.560638 57.373528,149.625275 
	C62.998863,149.753250 68.161285,149.781097 73.323723,149.782898 
	C97.138794,149.791214 120.953934,149.816010 144.768799,149.747437 
	C146.527588,149.742371 149.661163,151.084961 148.963867,146.767731 
	C149.015701,146.537445 149.041962,146.066086 149.041962,146.066071 
	C150.351654,146.097214 151.661331,146.128342 153.281494,146.410553 
	C153.281784,149.061783 152.971588,151.461945 152.328964,154.006210 
z"/>
<path fill="#0D3963" opacity="1.000000" stroke="none" 
	d="
M51.786346,144.962524 
	C51.726456,133.956619 51.666561,122.950699 51.936348,111.261711 
	C52.100342,109.364510 51.934654,108.150375 51.768967,106.936249 
	C51.351307,100.749809 52.616806,94.175705 47.424576,88.828568 
	C46.981308,85.602951 46.760071,82.586586 46.771912,79.283615 
	C51.443432,93.179916 60.359043,104.135536 71.673141,113.890854 
	C71.216026,114.768745 70.826965,115.068977 70.059242,115.329460 
	C66.249298,114.458893 62.818020,113.628082 59.853615,112.910316 
	C60.324150,115.384888 60.667873,117.192543 61.011597,119.000198 
	C60.856869,119.082710 60.702137,119.165215 59.950970,119.220131 
	C58.030354,119.956169 56.706177,120.719810 55.203941,121.586136 
	C56.250713,122.401604 57.219284,123.156143 57.897659,124.131538 
	C53.470825,126.296043 52.532055,129.627686 52.918228,133.942520 
	C53.251129,137.662109 52.893494,141.443497 52.580879,145.123444 
	C52.142517,145.020370 51.964432,144.991440 51.786346,144.962524 
z"/>
<path fill="#043666" opacity="1.000000" stroke="none" 
	d="
M52.841156,145.197571 
	C52.893494,141.443497 53.251129,137.662109 52.918228,133.942520 
	C52.532055,129.627686 53.470825,126.296043 58.279495,124.159256 
	C59.965260,123.970604 60.978992,123.975075 61.992725,123.979553 
	C61.992725,123.979553 62.215927,124.215927 62.549438,124.438583 
	C63.255196,124.719437 63.627441,124.777634 63.999683,124.835838 
	C64.271255,125.024971 64.568840,125.154190 65.339447,125.470993 
	C66.189171,125.766190 66.591873,125.813896 66.994583,125.861588 
	C69.532776,126.649284 72.070961,127.436981 75.238670,128.490128 
	C76.577774,128.808075 77.287361,128.860580 77.996941,128.913086 
	C87.746605,129.688324 97.496262,130.463547 108.004417,131.086411 
	C110.152519,130.724716 111.542122,130.515366 113.570076,130.209854 
	C112.651031,131.445312 112.196556,132.296265 111.520859,132.899368 
	C110.795891,133.546448 109.862938,133.960526 108.849205,134.581360 
	C111.841835,135.782776 114.421669,136.818481 117.244186,138.112518 
	C118.400963,138.509644 119.315048,138.648407 120.181305,138.806992 
	C120.133461,138.826797 120.114006,138.725098 120.310715,139.041809 
	C124.596771,140.115097 128.686111,140.871643 132.976440,141.489288 
	C133.538193,141.324844 133.819397,141.462158 134.021057,141.762344 
	C137.297287,142.505371 140.578827,143.226089 143.847549,144.000778 
	C145.499573,144.392303 147.128448,144.881561 148.904877,145.696350 
	C149.041962,146.066086 149.015701,146.537445 148.602997,146.973083 
	C146.062195,147.642929 143.934464,148.077148 141.805954,148.080948 
	C115.500885,148.127991 89.195587,148.081985 62.890739,148.173187 
	C60.895844,148.180115 58.903927,149.046341 56.910625,149.513138 
	C56.206211,149.560638 55.501797,149.608139 54.350418,149.276855 
	C53.549355,147.664581 53.195255,146.431076 52.841156,145.197571 
z"/>
<path fill="#F0F6F9" opacity="1.000000" stroke="none" 
	d="
M134.463257,141.716064 
	C133.819397,141.462158 133.538193,141.324844 132.640289,141.250305 
	C128.106766,140.341827 124.110390,139.533463 120.114006,138.725098 
	C120.114006,138.725098 120.133461,138.826797 119.930634,138.564331 
	C118.819031,138.152649 117.910271,138.003418 117.001503,137.854187 
	C114.421669,136.818481 111.841835,135.782776 108.849205,134.581360 
	C109.862938,133.960526 110.795891,133.546448 111.520859,132.899368 
	C112.196556,132.296265 112.651031,131.445312 113.570076,130.209854 
	C111.542122,130.515366 110.152519,130.724716 108.384842,130.915253 
	C110.105942,129.299011 112.205101,127.701569 114.629013,126.448517 
	C115.324669,127.234932 115.647408,128.002365 116.074409,128.065598 
	C118.629425,128.443893 121.378563,128.180496 123.747421,129.020798 
	C130.756958,131.507309 137.619507,134.408157 144.788925,137.426239 
	C147.368195,138.423492 149.698090,139.141449 152.306030,140.016678 
	C153.374176,140.483719 154.164291,140.793503 154.954391,141.103287 
	C150.953064,145.078949 146.057358,142.365906 141.597916,142.764618 
	C139.417160,142.959595 137.139343,142.069016 134.463257,141.716064 
z"/>
<path fill="#043666" opacity="1.000000" stroke="none" 
	d="
M155.089386,140.884171 
	C154.164291,140.793503 153.374176,140.483719 152.307770,139.806534 
	C152.031479,139.439133 152.038788,139.018967 152.038788,139.018967 
	C153.458755,138.354309 154.878723,137.689651 156.645752,137.006439 
	C156.690308,137.779938 156.387817,138.572021 156.042587,139.679535 
	C155.741364,140.218338 155.482864,140.441696 155.089386,140.884171 
z"/>
<path fill="#023565" opacity="1.000000" stroke="none" 
	d="
M144.539551,137.146957 
	C137.619507,134.408157 130.756958,131.507309 123.747421,129.020798 
	C121.378563,128.180496 118.629425,128.443893 116.074409,128.065598 
	C115.647408,128.002365 115.324669,127.234932 114.963264,126.392059 
	C118.114372,120.938606 122.749962,121.632019 127.530174,122.896942 
	C125.874916,115.861862 119.969475,110.760841 113.462746,112.306892 
	C102.395775,114.936478 93.815849,110.488022 85.211121,103.870674 
	C85.413818,98.999962 83.177696,99.501869 80.540215,100.721970 
	C80.540215,100.721970 80.340309,100.687355 80.433846,100.219330 
	C80.240196,96.561646 78.408180,95.763733 75.558266,96.541740 
	C75.558266,96.541740 75.506020,96.511154 75.570557,96.117516 
	C74.059639,94.502304 72.484177,93.280739 70.908714,92.059174 
	C70.908714,92.059174 70.978737,92.034828 70.841385,91.846230 
	C70.430344,91.455650 70.156654,91.253670 69.882965,91.051682 
	C69.882965,91.051682 69.957153,91.031372 69.947670,90.672623 
	C69.550224,87.787971 69.031326,85.422302 65.527405,86.709145 
	C65.527405,86.709145 65.273895,86.640839 65.475121,86.275810 
	C65.784607,84.940796 65.892860,83.970810 66.087112,82.957428 
	C66.173111,82.914040 66.189117,82.690384 66.189117,82.690384 
	C66.189117,82.690384 65.999168,82.998886 65.573807,83.012032 
	C64.306999,83.142059 63.465549,83.258949 62.624100,83.375832 
	C62.624100,83.375832 62.848213,83.176147 62.713585,83.029251 
	C62.167027,82.583450 61.755096,82.284546 61.343166,81.985641 
	C61.343166,81.985641 60.959732,81.762253 61.049881,81.220764 
	C61.399673,79.488838 61.659321,78.298393 61.971775,76.865822 
	C59.837376,76.668869 58.229500,76.520493 56.621624,76.372116 
	C56.621624,76.372116 56.807022,76.179977 56.674232,76.024292 
	C56.272964,75.630852 56.004478,75.393105 55.735996,75.155357 
	C55.735996,75.155357 55.790516,75.124931 55.769867,75.150452 
	C55.667976,74.066177 55.720131,72.926506 55.479515,71.852425 
	C54.854065,69.060440 54.100002,66.297272 53.195946,62.806145 
	C53.387321,58.827961 53.780014,55.566231 54.172707,52.304501 
	C54.535568,52.250469 54.898434,52.196438 55.785797,52.580902 
	C59.269230,52.785381 62.228157,52.551369 65.187088,52.317352 
	C91.473465,52.259968 117.759842,52.202587 144.645386,52.556015 
	C146.164490,55.066280 147.868210,57.159691 147.884445,59.266098 
	C148.068680,83.179733 147.994904,107.095360 147.636719,131.011536 
	C146.398453,131.491959 145.513657,131.971329 144.628845,132.450684 
	C145.750748,132.965210 146.872650,133.479721 147.968323,134.380585 
	C146.807922,135.560272 145.673737,136.353622 144.539551,137.146957 
M142.495331,132.532959 
	C142.495331,132.532959 142.475525,132.485229 142.495331,132.532959 
z"/>
<path fill="#123A5F" opacity="1.000000" stroke="none" 
	d="
M147.990189,131.010452 
	C147.994904,107.095360 148.068680,83.179733 147.884445,59.266098 
	C147.868210,57.159691 146.164490,55.066280 145.104843,52.641090 
	C146.223083,52.336006 147.481064,52.356655 148.891861,53.115604 
	C149.105240,55.572006 149.165787,57.290112 149.226318,59.008213 
	C149.185318,82.358963 149.144302,105.709717 149.074646,129.929260 
	C149.333755,132.591721 149.621506,134.385376 149.909256,136.179047 
	C150.407425,136.455505 150.905579,136.731979 151.702286,137.099548 
	C152.005264,137.596893 152.009720,138.003098 152.026474,138.714142 
	C152.038788,139.018967 152.031479,139.439133 152.029724,139.649277 
	C149.698090,139.141449 147.368195,138.423492 144.788925,137.426239 
	C145.673737,136.353622 146.807922,135.560272 147.969849,134.007599 
	C147.995132,132.502350 147.992661,131.756393 147.990189,131.010452 
z"/>
<path fill="#123A5F" opacity="1.000000" stroke="none" 
	d="
M64.805664,52.223656 
	C62.228157,52.551369 59.269230,52.785381 56.050919,52.665634 
	C58.669102,52.251236 61.546669,52.190598 64.805664,52.223656 
z"/>
<path fill="#123A5F" opacity="1.000000" stroke="none" 
	d="
M53.793270,52.216858 
	C53.780014,55.566231 53.387321,58.827961 52.991295,62.542236 
	C52.644817,62.423229 52.301666,61.851685 51.885178,60.948174 
	C52.222500,57.763931 49.463676,54.313381 53.793270,52.216858 
z"/>
<path fill="#D6E2F0" opacity="1.000000" stroke="none" 
	d="
M149.923950,135.774155 
	C149.621506,134.385376 149.333755,132.591721 149.135864,130.393646 
	C149.463364,131.782578 149.701004,133.575928 149.923950,135.774155 
z"/>
<path fill="#D6E2F0" opacity="1.000000" stroke="none" 
	d="
M149.418732,58.712479 
	C149.165787,57.290112 149.105240,55.572006 149.111969,53.428749 
	C149.323212,54.807976 149.467178,56.612358 149.418732,58.712479 
z"/>
<path fill="#274A6A" opacity="1.000000" stroke="none" 
	d="
M70.437912,115.369217 
	C70.826965,115.068977 71.216026,114.768745 71.836212,114.180977 
	C74.500519,115.265770 77.423409,116.372635 74.840309,120.084831 
	C74.606415,120.420952 75.425377,121.489685 75.869965,122.601517 
	C75.984528,122.984825 75.950302,122.913071 75.950302,122.913071 
	C75.200607,123.042351 74.450912,123.171623 73.022385,123.235329 
	C71.895760,123.154144 71.447952,123.138519 71.000153,123.122894 
	C69.358948,122.334259 67.717743,121.545624 66.441681,120.355392 
	C68.017181,118.425606 69.227547,116.897415 70.437912,115.369217 
z"/>
<path fill="#E4F0F6" opacity="1.000000" stroke="none" 
	d="
M70.059242,115.329460 
	C69.227547,116.897415 68.017181,118.425606 66.478043,120.003311 
	C64.690170,119.713654 63.231087,119.374481 61.391800,119.017754 
	C60.667873,117.192543 60.324150,115.384888 59.853615,112.910316 
	C62.818020,113.628082 66.249298,114.458893 70.059242,115.329460 
z"/>
<path fill="#E4F0F6" opacity="1.000000" stroke="none" 
	d="
M61.779861,123.725937 
	C60.978992,123.975075 59.965260,123.970604 58.569687,123.938416 
	C57.219284,123.156143 56.250713,122.401604 55.203941,121.586136 
	C56.706177,120.719810 58.030354,119.956169 59.690746,119.258453 
	C60.540306,120.707024 61.053650,122.089668 61.779861,123.725937 
z"/>
<path fill="#0D3963" opacity="1.000000" stroke="none" 
	d="
M56.746330,76.674385 
	C58.229500,76.520493 59.837376,76.668869 61.971775,76.865822 
	C61.659321,78.298393 61.399673,79.488838 60.996223,81.005470 
	C59.525295,79.879990 58.198166,78.428322 56.746330,76.674385 
z"/>
<path fill="#0D3963" opacity="1.000000" stroke="none" 
	d="
M80.730583,100.961258 
	C83.177696,99.501869 85.413818,98.999962 85.011292,103.594772 
	C83.648140,103.046288 82.284546,102.123413 80.730583,100.961258 
z"/>
<path fill="#0D3963" opacity="1.000000" stroke="none" 
	d="
M75.750153,96.786011 
	C78.408180,95.763733 80.240196,96.561646 80.404816,100.122131 
	C78.835510,99.338730 77.388771,98.184502 75.750153,96.786011 
z"/>
<path fill="#0D3963" opacity="1.000000" stroke="none" 
	d="
M65.701508,86.964417 
	C69.031326,85.422302 69.550224,87.787971 69.934723,90.708832 
	C68.579369,89.809097 67.227486,88.514389 65.701508,86.964417 
z"/>
<path fill="#0D3963" opacity="1.000000" stroke="none" 
	d="
M71.023987,92.363358 
	C72.484177,93.280739 74.059639,94.502304 75.551361,96.094116 
	C74.024834,95.198753 72.582047,93.933151 71.023987,92.363358 
z"/>
<path fill="#0D3963" opacity="1.000000" stroke="none" 
	d="
M62.727379,83.647575 
	C63.465549,83.258949 64.306999,83.142059 65.574226,83.012589 
	C66.000000,83.000000 66.001122,83.000824 66.001122,83.000824 
	C65.892860,83.970810 65.784607,84.940796 65.462204,86.145172 
	C64.442261,85.559486 63.636456,84.739403 62.727379,83.647575 
z"/>
<path fill="#E4F0F6" opacity="1.000000" stroke="none" 
	d="
M75.948448,122.968117 
	C76.721428,123.296829 77.530487,123.642250 78.339546,123.987663 
	C78.183105,124.252777 78.026657,124.517883 77.870216,124.782997 
	C77.276352,124.357353 76.682495,123.931717 76.019470,123.209579 
	C75.950302,122.913071 75.984528,122.984825 75.948448,122.968117 
z"/>
<path fill="#E4F0F6" opacity="1.000000" stroke="none" 
	d="
M71.153351,123.292038 
	C71.447952,123.138519 71.895760,123.154144 72.648956,123.315887 
	C72.405075,123.461723 71.855812,123.461449 71.153351,123.292038 
z"/>
<path fill="#0D3963" opacity="1.000000" stroke="none" 
	d="
M61.445820,82.215332 
	C61.755096,82.284546 62.167027,82.583450 62.619522,83.146202 
	C62.289551,83.088371 61.919014,82.766701 61.445820,82.215332 
z"/>
<path fill="#E4F0F6" opacity="1.000000" stroke="none" 
	d="
M77.707596,128.701965 
	C77.287361,128.860580 76.577774,128.808075 75.594353,128.520844 
	C76.019753,128.354385 76.719002,128.422623 77.707596,128.701965 
z"/>
<path fill="#E4F0F6" opacity="1.000000" stroke="none" 
	d="
M63.792564,124.654976 
	C63.627441,124.777634 63.255196,124.719437 62.711540,124.426498 
	C62.888569,124.285881 63.237007,124.379997 63.792564,124.654976 
z"/>
<path fill="#E4F0F6" opacity="1.000000" stroke="none" 
	d="
M66.761650,125.676605 
	C66.591873,125.813896 66.189171,125.766190 65.583740,125.482117 
	C65.763588,125.327705 66.146156,125.409660 66.761650,125.676605 
z"/>
<path fill="#0D3963" opacity="1.000000" stroke="none" 
	d="
M69.964523,91.310867 
	C70.156654,91.253670 70.430344,91.455650 70.831314,91.881897 
	C70.654419,91.927460 70.350250,91.748756 69.964523,91.310867 
z"/>
<path fill="#0D3963" opacity="1.000000" stroke="none" 
	d="
M55.799183,75.424080 
	C56.004478,75.393105 56.272964,75.630852 56.602943,76.137161 
	C56.397087,76.168083 56.129730,75.930443 55.799183,75.424080 
z"/>
<path fill="#2E5170" opacity="1.000000" stroke="none" 
	d="
M57.373528,149.625275 
	C58.903927,149.046341 60.895844,148.180115 62.890739,148.173187 
	C89.195587,148.081985 115.500885,148.127991 141.805954,148.080948 
	C143.934464,148.077148 146.062195,147.642929 148.551163,147.203369 
	C149.661163,151.084961 146.527588,149.742371 144.768799,149.747437 
	C120.953934,149.816010 97.138794,149.791214 73.323723,149.782898 
	C68.161285,149.781097 62.998863,149.753250 57.373528,149.625275 
z"/>
<path fill="#2E5170" opacity="1.000000" stroke="none" 
	d="
M52.580879,145.123444 
	C53.195255,146.431076 53.549355,147.664581 54.002151,149.210419 
	C50.230625,150.171616 51.791298,147.274872 51.654221,145.267654 
	C51.964432,144.991440 52.142517,145.020370 52.580879,145.123444 
z"/>
<path fill="#2E5170" opacity="1.000000" stroke="none" 
	d="
M51.651718,107.214638 
	C51.934654,108.150375 52.100342,109.364510 52.026325,110.820114 
	C51.702568,109.872070 51.618515,108.682549 51.651718,107.214638 
z"/>
<path fill="#123A5F" opacity="1.000000" stroke="none" 
	d="
M120.310715,139.041809 
	C124.110390,139.533463 128.106766,140.341827 132.439301,141.389191 
	C128.686111,140.871643 124.596771,140.115097 120.310715,139.041809 
z"/>
<path fill="#123A5F" opacity="1.000000" stroke="none" 
	d="
M117.244186,138.112518 
	C117.910271,138.003418 118.819031,138.152649 119.978470,138.544525 
	C119.315048,138.648407 118.400963,138.509644 117.244186,138.112518 
z"/>
<path fill="#0D3963" opacity="1.000000" stroke="none" 
	d="
M147.636719,131.011536 
	C147.992661,131.756393 147.995132,132.502350 147.996078,133.621277 
	C146.872650,133.479721 145.750748,132.965210 144.628845,132.450684 
	C145.513657,131.971329 146.398453,131.491959 147.636719,131.011536 
z"/>
<path fill="#0D3963" opacity="1.000000" stroke="none" 
	d="
M65.999588,82.999443 
	C65.999168,82.998886 66.189117,82.690384 66.189117,82.690384 
	C66.189117,82.690384 66.173111,82.914040 66.087112,82.957428 
	C66.001122,83.000824 66.000000,83.000000 65.999588,82.999443 
z"/>
<path fill="#0D3963" opacity="1.000000" stroke="none" 
	d="
M142.485428,132.509094 
	C142.475525,132.485229 142.495331,132.532959 142.485428,132.509094 
z"/>
</svg>